<?xml version="1.0" encoding="UTF-8"?>
<svg width="90px" height="90px" viewBox="0 0 90 90" version="1.1" xmlns="http://www.w3.org/2000/svg" xmlns:xlink="http://www.w3.org/1999/xlink">
    <!-- Generator: Sketch 47.1 (45422) - http://www.bohemiancoding.com/sketch -->
    <title>icon-data_tiers</title>
    <desc>Created with Sketch.</desc>
    <defs></defs>
    <g id="Page-1" stroke="none" stroke-width="1" fill="none" fill-rule="evenodd">
        <g id="JAMNAV-Homepage" transform="translate(-519.000000, -3881.000000)">
            <g id="Data-Tiers" transform="translate(270.000000, 3881.000000)">
                <g id="Group-18-Copy" transform="translate(249.000000, 0.000000)">
                    <g id="icon-data_tiers">
                        <circle id="Oval-7" fill="#B7F0E8" cx="45" cy="45" r="45"></circle>
                        <g id="Group-12" transform="translate(25.000000, 25.000000)" fill-rule="nonzero">
                            <g id="ram">
                                <path d="M39.7984248,33.9130435 C39.9262537,33.3527838 40,32.7723495 40,32.173913 L40,30.4347826 C40,29.9546084 39.6110336,29.5652174 39.1304348,29.5652174 C37.6919058,29.5652174 36.5217391,28.3950441 36.5217391,26.9565217 C36.5217391,25.5179994 37.6919058,24.3478261 39.1304348,24.3478261 C39.6110336,24.3478261 40,23.958435 40,23.4782609 L40,16.5217391 C40,16.041565 39.6110336,15.6521739 39.1304348,15.6521739 C37.6919058,15.6521739 36.5217391,14.4820006 36.5217391,13.0434783 C36.5217391,11.6049559 37.6919058,10.4347826 39.1304348,10.4347826 C39.6110336,10.4347826 40,10.0453916 40,9.56521739 L40,7.82608696 C40,3.51095652 36.4894701,0 32.173913,0 L7.82608696,0 C3.51051417,0 0,3.51095652 0,7.82608696 L0,9.56521739 C0,10.0453916 0.388948783,10.4347826 0.869565217,10.4347826 C2.3080793,10.4347826 3.47826087,11.6049568 3.47826087,13.0434783 C3.47826087,14.4819997 2.3080793,15.6521739 0.869565217,15.6521739 C0.388948783,15.6521739 0,16.041565 0,16.5217391 L0,23.4782609 C0,23.958435 0.388948783,24.3478261 0.869565217,24.3478261 C2.3080793,24.3478261 3.47826087,25.5179994 3.47826087,26.9565217 C3.47826087,28.3950441 2.3080793,29.5652174 0.869565217,29.5652174 C0.388948783,29.5652174 0,29.9546084 0,30.4347826 L0,32.173913 C0,32.7723495 0.0737314783,33.3527838 0.201557478,33.9130435 L39.7984248,33.9130435 Z" id="Shape" fill="#259BB1"></path>
                                <path d="M0.201557478,33.9130435 C0.995296609,37.3927838 4.10894896,40 7.82608696,40 L32.173913,40 C35.8910337,40 39.0046857,37.3927838 39.7984248,33.9130435 L0.201557478,33.9130435 Z" id="Shape" fill="#444444"></path>
                                <path d="M14.7826087,17.3913043 L11.3043478,17.3913043 C10.3438178,17.3913043 9.56521739,16.6126964 9.56521739,15.6521739 L9.56521739,12.173913 C9.56521739,11.2133913 10.3438178,10.4347826 11.3043478,10.4347826 L14.7826087,10.4347826 C15.743123,10.4347826 16.5217391,11.2133913 16.5217391,12.173913 L16.5217391,15.6521739 C16.5217391,16.6126964 15.743123,17.3913043 14.7826087,17.3913043 Z" id="Shape" fill="#444444"></path>
                                <path d="M28.6956522,17.3913043 L25.2173913,17.3913043 C24.2568605,17.3913043 23.4782609,16.6126964 23.4782609,15.6521739 L23.4782609,12.173913 C23.4782609,11.2133913 24.2568605,10.4347826 25.2173913,10.4347826 L28.6956522,10.4347826 C29.6561664,10.4347826 30.4347826,11.2133913 30.4347826,12.173913 L30.4347826,15.6521739 C30.4347826,16.6126964 29.6561664,17.3913043 28.6956522,17.3913043 Z" id="Shape" fill="#444444"></path>
                                <path d="M14.7826087,29.5652174 L11.3043478,29.5652174 C10.3438178,29.5652174 9.56521739,28.7866078 9.56521739,27.826087 L9.56521739,24.3478261 C9.56521739,23.3873036 10.3438178,22.6086957 11.3043478,22.6086957 L14.7826087,22.6086957 C15.743123,22.6086957 16.5217391,23.3873036 16.5217391,24.3478261 L16.5217391,27.826087 C16.5217391,28.7866078 15.743123,29.5652174 14.7826087,29.5652174 Z" id="Shape" fill="#444444"></path>
                                <path d="M28.6956522,29.5652174 L25.2173913,29.5652174 C24.2568605,29.5652174 23.4782609,28.7866078 23.4782609,27.826087 L23.4782609,24.3478261 C23.4782609,23.3873036 24.2568605,22.6086957 25.2173913,22.6086957 L28.6956522,22.6086957 C29.6561664,22.6086957 30.4347826,23.3873036 30.4347826,24.3478261 L30.4347826,27.826087 C30.4347826,28.7866078 29.6561664,29.5652174 28.6956522,29.5652174 Z" id="Shape" fill="#444444"></path>
                                <path d="M8.69565217,40 L8.69565217,37.3913043 C8.69565217,36.9111302 9.08460122,36.5217391 9.56521739,36.5217391 C10.0458178,36.5217391 10.4347826,36.9111302 10.4347826,37.3913043 L10.4347826,40 L8.69565217,40 Z" id="Shape" fill="#EA9860"></path>
                                <path d="M13.9130435,40 L13.9130435,37.3913043 C13.9130435,36.9111302 14.3019917,36.5217391 14.7826087,36.5217391 C15.2632091,36.5217391 15.6521739,36.9111302 15.6521739,37.3913043 L15.6521739,40 L13.9130435,40 Z" id="Shape" fill="#EA9860"></path>
                                <path d="M19.1304348,40 L19.1304348,37.3913043 C19.1304348,36.9111302 19.519383,36.5217391 20,36.5217391 C20.4806004,36.5217391 20.8695652,36.9111302 20.8695652,37.3913043 L20.8695652,40 L19.1304348,40 Z" id="Shape" fill="#EA9860"></path>
                                <path d="M24.3478261,40 L24.3478261,37.3913043 C24.3478261,36.9111302 24.7367743,36.5217391 25.2173913,36.5217391 C25.6979917,36.5217391 26.0869565,36.9111302 26.0869565,37.3913043 L26.0869565,40 L24.3478261,40 Z" id="Shape" fill="#EA9860"></path>
                                <path d="M29.5652174,40 L29.5652174,37.3913043 C29.5652174,36.9111302 29.9541639,36.5217391 30.4347826,36.5217391 C30.9153814,36.5217391 31.3043478,36.9111302 31.3043478,37.3913043 L31.3043478,40 L29.5652174,40 Z" id="Shape" fill="#EA9860"></path>
                            </g>
                        </g>
                    </g>
                </g>
            </g>
        </g>
    </g>
</svg>