<?xml version="1.0" encoding="UTF-8"?>
<svg width="175px" height="48px" viewBox="0 0 175 48" version="1.1" xmlns="http://www.w3.org/2000/svg" xmlns:xlink="http://www.w3.org/1999/xlink">
    <!-- Generator: Sketch 47.1 (45422) - http://www.bohemiancoding.com/sketch -->
    <title>ground</title>
    <desc>Created with Sketch.</desc>
    <defs></defs>
    <g id="Page-1" stroke="none" stroke-width="1" fill="none" fill-rule="evenodd">
        <g id="JAMNAV-Homepage" transform="translate(-633.000000, -1696.000000)">
            <g id="The-JAMNAV-API" transform="translate(309.000000, 1288.000000)">
                <g id="Stacked-Group-2" transform="translate(0.000000, 367.000000)">
                    <g id="Group-25" transform="translate(286.000000, 0.000000)">
                        <g id="ground" transform="translate(39.000000, 41.000000)">
                            <path d="M0,46.4163409 C14.9821917,41.0703244 41.3941506,26.3064558 64.2611557,32.4844923 C77.9306387,36.1776111 90.7947213,42.4598279 104.390305,46.4163409 C106.86889,47.1376453 109.650968,47.1203286 112.134527,46.4163409 C141.727375,38.0279755 150.940211,38.9754226 172.291192,46.4163409" id="Path-4" stroke="#259BB1" stroke-width="2" stroke-linecap="round" stroke-linejoin="round"></path>
                            <g id="walk" transform="translate(94.000000, 0.000000)" fill-rule="nonzero">
                                <circle id="Oval" fill="#259BB1" cx="17" cy="5" r="5"></circle>
                                <path d="M12.45,17.561 L13.433,12.323 L3.974,17.073 C3.53461581,17.2927274 3.1914715,17.6664842 3.01,18.123 L0.967,23.26 C0.676140688,24.0226622 1.05121974,24.877593 1.80936476,25.1800314 C2.56750977,25.4824698 3.42805266,25.120452 3.742,24.367 L5.654,19.587 L12.45,17.561 Z" id="Shape" fill="#0E6F81"></path>
                                <path d="M22.2,31.4 L14.562,25.656 L12.854,31.488 L19,35 L19,43 C19,44.1045695 19.8954305,45 21,45 C22.1045695,45 23,44.1045695 23,43 L23,33 C23,32.3704854 22.7036117,31.7777088 22.2,31.4 Z" id="Shape" fill="#0E6F81"></path>
                                <path d="M30.083,18.083 C29.9353247,17.7135129 29.6468926,17.4178411 29.2811793,17.2610532 C28.9154659,17.1042653 28.5024412,17.0992101 28.133,17.247 L23.365,19.12 L18,13.375 C16.9709373,12.1828735 15.3343828,11.711936 13.8290857,12.1747709 C12.3237886,12.6376059 11.2345273,13.9466524 11.053,15.511 C11.053,15.511 6,43.4 6,44 C6.01448476,44.9897864 6.75084896,45.8200707 7.73181588,45.9527014 C8.7127828,46.0853321 9.64319374,45.4804027 9.92,44.53 L18.105,19.33 L21.953,21.96 C22.5033573,22.3361998 23.2049779,22.4134493 23.824,22.166 L29.247,20.032 C30.0158824,19.7244751 30.3900972,18.8520534 30.083,18.083 Z" id="Shape" fill="#259BB1"></path>
                            </g>
                        </g>
                    </g>
                </g>
            </g>
        </g>
    </g>
</svg>