<?xml version="1.0" encoding="UTF-8"?>
<svg width="107px" height="93px" viewBox="0 0 107 93" version="1.1" xmlns="http://www.w3.org/2000/svg" xmlns:xlink="http://www.w3.org/1999/xlink">
    <!-- Generator: Sketch 47.1 (45422) - http://www.bohemiancoding.com/sketch -->
    <title>tier3-data-cube</title>
    <desc>Created with Sketch.</desc>
    <defs></defs>
    <g id="Page-1" stroke="none" stroke-width="1" fill="none" fill-rule="evenodd">
        <g id="JAMNAV-Homepage" transform="translate(-974.000000, -4197.000000)" fill-rule="nonzero">
            <g id="Data-Tiers" transform="translate(270.000000, 3881.000000)">
                <g id="Group-22" transform="translate(0.000000, 251.000000)">
                    <g id="tier3-data-cube" transform="translate(704.000000, 64.000000)">
                        <g id="Group-23">
                            <g id="app-copy-3">
                                <path d="M42.5275349,9.172 C42.2451163,8.985 41.8859535,8.947 41.5738605,9.071 L21.1087442,17.071 C20.719907,17.224 20.4651163,17.591 20.4651163,18 L20.4651163,44 C20.4651163,44.332 20.6339535,44.642 20.9143256,44.828 C21.0862326,44.941 21.2867907,45 21.4883721,45 C21.6173023,45 21.7462326,44.977 21.868,44.929 L42.3331163,36.929 C42.7219535,36.776 42.9767442,36.409 42.9767442,36 L42.9767442,10 C42.9767442,9.668 42.807907,9.358 42.5275349,9.172 Z" id="Shape" fill="#B7F0E8"></path>
                                <path d="M21.4883721,16.923 L1.40288372,9.071 C1.08976744,8.95 0.731627907,8.986 0.449209302,9.172 C0.168837209,9.358 0,9.668 0,10 L0,36 C0,36.409 0.254790698,36.776 0.643627907,36.929 L21.1087442,44.929 C21.2305116,44.977 21.3594419,45 21.4883721,45 L21.4883721,16.923 Z" id="Shape" fill="#4CC2B1"></path>
                                <path d="M42.3331163,9.071 L21.868,1.071 C21.6244651,0.975 21.3522791,0.975 21.1087442,1.071 L0.643627907,9.071 C0.254790698,9.224 0,9.591 0,10 C0,10.409 0.254790698,10.776 0.643627907,10.929 L21.1087442,18.929 C21.2305116,18.977 21.3594419,19 21.4883721,19 C21.6173023,19 21.7462326,18.977 21.868,18.929 L42.3331163,10.929 C42.7219535,10.776 42.9767442,10.409 42.9767442,10 C42.9767442,9.591 42.7219535,9.224 42.3331163,9.071 Z" id="Shape" fill="#74DACC"></path>
                            </g>
                            <g id="app-copy-4" transform="translate(32.000000, 49.000000)">
                                <path d="M42.5275349,9.172 C42.2451163,8.985 41.8859535,8.947 41.5738605,9.071 L21.1087442,17.071 C20.719907,17.224 20.4651163,17.591 20.4651163,18 L20.4651163,44 C20.4651163,44.332 20.6339535,44.642 20.9143256,44.828 C21.0862326,44.941 21.2867907,45 21.4883721,45 C21.6173023,45 21.7462326,44.977 21.868,44.929 L42.3331163,36.929 C42.7219535,36.776 42.9767442,36.409 42.9767442,36 L42.9767442,10 C42.9767442,9.668 42.807907,9.358 42.5275349,9.172 Z" id="Shape" fill="#4CC2B1"></path>
                                <path d="M21.4883721,16.923 L1.40288372,9.071 C1.08976744,8.95 0.731627907,8.986 0.449209302,9.172 C0.168837209,9.358 0,9.668 0,10 L0,36 C0,36.409 0.254790698,36.776 0.643627907,36.929 L21.1087442,44.929 C21.2305116,44.977 21.3594419,45 21.4883721,45 L21.4883721,16.923 Z" id="Shape" fill="#74DACC"></path>
                                <path d="M42.3331163,9.071 L21.868,1.071 C21.6244651,0.975 21.3522791,0.975 21.1087442,1.071 L0.643627907,9.071 C0.254790698,9.224 0,9.591 0,10 C0,10.409 0.254790698,10.776 0.643627907,10.929 L21.1087442,18.929 C21.2305116,18.977 21.3594419,19 21.4883721,19 C21.6173023,19 21.7462326,18.977 21.868,18.929 L42.3331163,10.929 C42.7219535,10.776 42.9767442,10.409 42.9767442,10 C42.9767442,9.591 42.7219535,9.224 42.3331163,9.071 Z" id="Shape" fill="#B7F0E8"></path>
                            </g>
                            <g id="app-copy-5" transform="translate(64.000000, 0.000000)">
                                <path d="M42.5275349,9.172 C42.2451163,8.985 41.8859535,8.947 41.5738605,9.071 L21.1087442,17.071 C20.719907,17.224 20.4651163,17.591 20.4651163,18 L20.4651163,44 C20.4651163,44.332 20.6339535,44.642 20.9143256,44.828 C21.0862326,44.941 21.2867907,45 21.4883721,45 C21.6173023,45 21.7462326,44.977 21.868,44.929 L42.3331163,36.929 C42.7219535,36.776 42.9767442,36.409 42.9767442,36 L42.9767442,10 C42.9767442,9.668 42.807907,9.358 42.5275349,9.172 Z" id="Shape" fill="#74DACC"></path>
                                <path d="M21.4883721,16.923 L1.40288372,9.071 C1.08976744,8.95 0.731627907,8.986 0.449209302,9.172 C0.168837209,9.358 0,9.668 0,10 L0,36 C0,36.409 0.254790698,36.776 0.643627907,36.929 L21.1087442,44.929 C21.2305116,44.977 21.3594419,45 21.4883721,45 L21.4883721,16.923 Z" id="Shape" fill="#B7F0E8"></path>
                                <path d="M42.3331163,9.071 L21.868,1.071 C21.6244651,0.975 21.3522791,0.975 21.1087442,1.071 L0.643627907,9.071 C0.254790698,9.224 0,9.591 0,10 C0,10.409 0.254790698,10.776 0.643627907,10.929 L21.1087442,18.929 C21.2305116,18.977 21.3594419,19 21.4883721,19 C21.6173023,19 21.7462326,18.977 21.868,18.929 L42.3331163,10.929 C42.7219535,10.776 42.9767442,10.409 42.9767442,10 C42.9767442,9.591 42.7219535,9.224 42.3331163,9.071 Z" id="Shape" fill="#4CC2B1"></path>
                            </g>
                            <g id="app-copy-7" transform="translate(32.000000, 15.000000)">
                                <path d="M42.5275349,8.56053333 C42.2451163,8.386 41.8859535,8.35053333 41.5738605,8.46626667 L21.1087442,15.9329333 C20.719907,16.0757333 20.4651163,16.4182667 20.4651163,16.8 L20.4651163,41.0666667 C20.4651163,41.3765333 20.6339535,41.6658667 20.9143256,41.8394667 C21.0862326,41.9449333 21.2867907,42 21.4883721,42 C21.6173023,42 21.7462326,41.9785333 21.868,41.9337333 L42.3331163,34.4670667 C42.7219535,34.3242667 42.9767442,33.9817333 42.9767442,33.6 L42.9767442,9.33333333 C42.9767442,9.02346667 42.807907,8.73413333 42.5275349,8.56053333 Z" id="Shape" fill="#D43B3B"></path>
                                <path d="M21.4883721,15.7948 L1.40288372,8.46626667 C1.08976744,8.35333333 0.731627907,8.38693333 0.449209302,8.56053333 C0.168837209,8.73413333 0,9.02346667 0,9.33333333 L0,33.6 C0,33.9817333 0.254790698,34.3242667 0.643627907,34.4670667 L21.1087442,41.9337333 C21.2305116,41.9785333 21.3594419,42 21.4883721,42 L21.4883721,15.7948 Z" id="Shape" fill="#EB5757"></path>
                                <path d="M42.3331163,8.46626667 L21.868,0.9996 C21.6244651,0.91 21.3522791,0.91 21.1087442,0.9996 L0.643627907,8.46626667 C0.254790698,8.60906667 0,8.9516 0,9.33333333 C0,9.71506667 0.254790698,10.0576 0.643627907,10.2004 L21.1087442,17.6670667 C21.2305116,17.7118667 21.3594419,17.7333333 21.4883721,17.7333333 C21.6173023,17.7333333 21.7462326,17.7118667 21.868,17.6670667 L42.3331163,10.2004 C42.7219535,10.0576 42.9767442,9.71506667 42.9767442,9.33333333 C42.9767442,8.9516 42.7219535,8.60906667 42.3331163,8.46626667 Z" id="Shape" fill="#F78888"></path>
                            </g>
                        </g>
                    </g>
                </g>
            </g>
        </g>
    </g>
</svg>