<svg xmlns="http://www.w3.org/2000/svg" xmlns:xlink="http://www.w3.org/1999/xlink" width="188" height="79" viewBox="0 0 188 79">
    <defs>
        <path id="a" d="M0 27.817V.007h32.55v27.81z"/>
        <path id="c" d="M28.401.165H.191V29.39H28.4V.165z"/>
        <path id="e" d="M0 92.804h97.85V.52H0z"/>
        <circle id="g" cx="39.5" cy="39.5" r="39.5"/>
        <filter id="f" width="143%" height="143%" x="-21.5%" y="-16.5%" filterUnits="objectBoundingBox">
            <feOffset dy="4" in="SourceAlpha" result="shadowOffsetOuter1"/>
            <feGaussianBlur in="shadowOffsetOuter1" result="shadowBlurOuter1" stdDeviation="5"/>
            <feColorMatrix in="shadowBlurOuter1" values="0 0 0 0 0.131610225 0 0 0 0 0.570581143 0 0 0 0 0.644982993 0 0 0 0.237290534 0"/>
        </filter>
    </defs>
    <g fill="none" fill-rule="evenodd">
        <path fill="#FFF" d="M20.689 35.29c1.65-.012 3.035-.336 4.155-.973s2.077-1.56 2.872-2.77c.796-1.21 1.487-2.706 2.075-4.49.587-1.784 1.172-3.83 1.758-6.134l3.703-14.315-7.35.05-4.123 16.044c-.18.506-.416 1.064-.71 1.677-.295.613-.629 1.19-1 1.732a6.08 6.08 0 0 1-1.253 1.357c-.462.363-.94.547-1.43.55l-7.815.053a27.118 27.118 0 0 0-2.154 3.572 66.292 66.292 0 0 0-1.68 3.627l-.023.107 11.852-.08 1.123-.008zM88.486 6.248l-9.428 14.408-2.024-14.33-9.362.062-7.368 28.632 7.428-.05 4.123-16.098 2.184 16.056 2.67-.019 10.466-16.14-4.122 16.099 7.43-.052L97.85 6.185z"/>
        <g transform="translate(0 45.308)">
            <mask id="b" fill="#fff">
                <use xlink:href="#a"/>
            </mask>
            <path fill="#FFF" d="M23.916 2.09l-3.047 11.79-1.46-10.361C11.802 6.193 5.889 9.766 3.346 14.534L.279 26.452l-.28 1.365 8.12-.055 4.545-17.752 2.45 17.705 10.326-.071L32.55.007c-2.99.607-5.89 1.297-8.634 2.082" mask="url(#b)"/>
        </g>
        <path fill="#FFF" d="M40.896 64.88l-.002-.595 7.12-13.427 1.542 13.963-8.66.058zm13.947-19.39a25.344 25.344 0 0 0-.455-1.99 8.012 8.012 0 0 0-.425-1.2c-3.396.31-6.859.693-10.303 1.16a14.8 14.8 0 0 0-.32.473c-.254.398-.424.716-.508.954L27.569 72.343v.18c0-.04-.028.098-.083.416l16.39-.112c4.517-.03 5.628-6.518 5.684-6.757l.92 6.714 7.593-.052-2.905-25.49c-.086-.476-.195-1.06-.325-1.753z"/>
        <g transform="translate(29.81 5.835)">
            <mask id="d" fill="#fff">
                <use xlink:href="#c"/>
            </mask>
            <path fill="#FFF" d="M12.56 21.957l-.003-.548 6.568-12.384 1.421 12.879-7.987.053zM25.42 4.074c-.12-.638-.259-1.25-.418-1.835a6.723 6.723 0 0 0-.576-1.476c-.224-.4-.468-.6-.73-.598l-6.61.045c-.184 0-.414.14-.687.414-.275.277-.55.59-.824.938-.273.351-.528.71-.763 1.076-.234.368-.391.66-.47.88L.268 28.84v.165c0-.036-.027.092-.077.386l15.116-.103c4.166-.028 5.19-6.014 5.243-6.233l.848 6.193L28.4 29.2l-2.68-23.51c-.08-.438-.179-.977-.3-1.616z" mask="url(#d)"/>
        </g>
        <path fill="#FFF" d="M69.172 62.37l-2.1-20.983c-2.364.116-4.836.262-7.379.445l2.668 24.866c.087.474.189 1.06.305 1.751.115.693.26 1.356.433 1.99.173.633.373 1.168.604 1.599.228.437.498.652.813.65l7.038-.048c.198 0 .454-.152.766-.45.311-.3.616-.659.914-1.076a33.04 33.04 0 0 0 1.421-2.18l15.048-27.931-8.788.059L69.172 62.37z"/>
        <path fill="#FEFEFE" d="M86.046 38.452l4.417.031-4.414-.22-.003.189zm-4.887-.395l-8.721-.254-.002.776 8.72-.121.003-.4zm-13.57-.33c-2.908-.027-5.818-.028-8.727.004l.022 1.36a420.64 420.64 0 0 1 8.71-.378l-.005-.985zm-13.577.089c-2.91.071-5.822.175-8.73.325l.071 1.943c2.897-.272 5.795-.504 8.695-.7l-.036-1.568zm-13.58.614c-2.91.201-5.82.447-8.725.754l.163 2.521c2.884-.429 5.77-.799 8.661-1.123l-.1-2.152zm-21.947 5.783a157.975 157.975 0 0 1 8.59-1.733l-.01-2.86c-3.052.385-5.22.818-8.114 1.363l-.466 3.23zm-8.951 2.462c-1.284.42-3.107 1.121-4.467 1.655l.846-4.143a75.956 75.956 0 0 1 3.085-.945c1.442-.405 4-1.082 5.446-1.419l-.689 3.587c-1.413.39-2.822.81-4.221 1.265z"/>
        <g>
            <g transform="translate(109.356)">
                <use fill="#000" filter="url(#f)" xlink:href="#g"/>
                <use fill="#4CBCCE" xlink:href="#g"/>
            </g>
            <path fill="#FFF" d="M127.993 48.04h-4.759l6.467-17.08h4.881l6.467 17.08h-4.759l-1.098-3.05h-6.1l-1.099 3.05zm2.196-6.222h3.905l-1.952-5.734-1.953 5.734zm14.427-10.859h10.25c1.708 0 2.948.387 3.721 1.16.773.772 1.16 2.013 1.16 3.72v2.44c0 1.709-.387 2.95-1.16 3.722-.773.773-2.013 1.16-3.721 1.16h-5.857v4.88h-4.393V30.959zm10.738 4.88c0-.975-.488-1.463-1.465-1.463h-4.88v5.368h4.88c.977 0 1.465-.488 1.465-1.464v-2.44zm16.988 12.202h-8.785v-3.417h2.196V34.376h-2.196v-3.417h8.785v3.417h-2.196v10.248h2.196v3.417z"/>
        </g>
    </g>
</svg>
