<?xml version="1.0" encoding="UTF-8"?>
<svg width="198px" height="99px" viewBox="0 0 198 99" version="1.1" xmlns="http://www.w3.org/2000/svg" xmlns:xlink="http://www.w3.org/1999/xlink">
    <!-- Generator: Sketch 47.1 (45422) - http://www.bohemiancoding.com/sketch -->
    <title>JamNav API Logo 2</title>
    <desc>Created with Sketch.</desc>
    <defs>
        <polygon id="path-1" points="0 27.8174132 0 0.0067 32.5492654 0.0067 32.5492654 27.8174132"></polygon>
        <polygon id="path-3" points="28.4013688 0.164643411 0.19078327 0.164643411 0.19078327 29.3906147 28.4013688 29.3906147 28.4013688 0.164643411"></polygon>
        <polygon id="path-5" points="0 92.8043488 97.8502053 92.8043488 97.8502053 0.519379845 0 0.519379845"></polygon>
        <circle id="path-7" cx="39.5" cy="39.5" r="39.5"></circle>
        <filter x="-21.5%" y="-16.5%" width="143.0%" height="143.0%" filterUnits="objectBoundingBox" id="filter-8">
            <feOffset dx="0" dy="4" in="SourceAlpha" result="shadowOffsetOuter1"></feOffset>
            <feGaussianBlur stdDeviation="5" in="shadowOffsetOuter1" result="shadowBlurOuter1"></feGaussianBlur>
            <feColorMatrix values="0 0 0 0 0.131610225   0 0 0 0 0.570581143   0 0 0 0 0.644982993  0 0 0 0.237290534 0" type="matrix" in="shadowBlurOuter1"></feColorMatrix>
        </filter>
    </defs>
    <g id="Page-1" stroke="none" stroke-width="1" fill="none" fill-rule="evenodd">
        <g id="JAMNAV-Homepage" transform="translate(-626.000000, -4983.000000)">
            <g id="Footer" transform="translate(0.000000, 4877.000000)">
                <g id="JamNav-API-Logo-2" transform="translate(626.000000, 112.000000)">
                    <g id="Group-3">
                        <g id="jamnav-copy" transform="translate(0.000000, 6.000000)">
                            <g id="Page-1" transform="translate(0.000000, -0.519380)">
                                <path d="M20.6886198,29.8087674 C22.338597,29.7973411 23.7240114,29.4732481 24.8441179,28.8364884 C25.9642243,28.1992093 26.9214943,27.2757519 27.7163004,26.0666357 C28.5122243,24.8559612 29.2030684,23.3601473 29.7906958,21.5755581 C30.3775779,19.7925271 30.9629696,17.7472093 31.5491065,15.4422016 L35.2518669,1.12705426 L27.9014943,1.17743411 L23.7787871,17.2210775 C23.5991825,17.7269535 23.3625665,18.2852868 23.0689392,18.8986744 C22.7738213,19.5110233 22.4403232,20.0885736 22.0688175,20.6308062 C21.6965665,21.172 21.2792281,21.6243798 20.8156844,21.9874264 C20.3536312,22.3504729 19.8755551,22.5343333 19.3859278,22.5374496 L11.5712662,22.589907 C10.7496312,23.7455271 10.0304677,24.9369845 9.41675665,26.1627209 C8.81944106,27.3557364 8.26013308,28.563814 7.73622433,29.7895504 L7.71423954,29.8960233 L19.5655323,29.8155194 L20.6886198,29.8087674 Z" id="Fill-1" fill="#4CBCCE"></path>
                                <polygon id="Fill-3" fill="#4CBCCE" points="88.4864357 0.767591473 79.0575688 15.1757078 77.0338502 0.84445969 67.6724281 0.907824031 60.3041696 29.5396767 67.7316753 29.4898163 71.8551278 13.391638 74.0390745 29.4477465 76.7081772 29.4285295 87.1751734 13.287762 83.0532114 29.3869791 90.4825802 29.3355605 97.8500935 0.704227132"></polygon>
                                <g id="Group-7" transform="translate(0.000000, 39.827605)">
                                    <mask id="mask-2" fill="white">
                                        <use xlink:href="#path-1"></use>
                                    </mask>
                                    <g id="Clip-6"></g>
                                    <path d="M20.8686342,13.8803744 L19.4086951,3.51874651 C11.8015848,6.19251395 5.88842129,9.76584729 3.34563802,14.5342736 L0.278946008,26.4519636 L-0.00014904943,27.8174132 L8.11820076,27.7623589 L12.6638357,10.0099558 L15.114581,27.714576 L25.4396076,27.6439403 L32.5492654,0.0067 C29.5597065,0.614374419 26.6603224,1.30411085 23.9159498,2.08941318 L20.8686342,13.8803744 Z" id="Fill-5" fill="#4CBCCE" mask="url(#mask-2)"></path>
                                </g>
                                <path d="M40.8961452,59.3986682 L40.8939095,58.8039783 L48.014746,45.3769705 L49.5559171,59.3399783 L40.8961452,59.3986682 Z M54.8427004,40.0086605 C54.7122821,39.3163271 54.560997,38.6541178 54.387727,38.019955 C54.2647612,37.5691333 54.122419,37.1702496 53.9629361,36.8186295 C50.5668449,37.1302574 47.104054,37.5120016 43.6595217,37.978924 C43.550343,38.1357767 43.4419095,38.2931488 43.3401833,38.4520791 C43.0856814,38.8504434 42.9161376,39.1688233 42.8315521,39.4061798 L27.5688905,66.862676 L27.5696357,67.0423814 C27.5692631,67.0018698 27.5413163,67.1405442 27.4857954,67.4584047 L43.8752707,67.346738 C48.3929589,67.3160946 49.5041224,60.8280016 49.5603886,60.5896062 L50.4800236,67.3031101 L58.0726015,67.2511721 L55.1683734,41.7610481 C55.0819247,41.2852961 54.9734913,40.7015132 54.8427004,40.0086605 L54.8427004,40.0086605 Z" id="Fill-8" fill="#4CBCCE"></path>
                                <g id="Group-12" transform="translate(29.809886, 0.354736)">
                                    <mask id="mask-4" fill="white">
                                        <use xlink:href="#path-3"></use>
                                    </mask>
                                    <g id="Clip-11"></g>
                                    <path d="M12.5592776,21.9572504 L12.5570418,21.4093047 L19.1245323,9.02469225 L20.5464639,21.9037543 L12.5592776,21.9572504 Z M25.4211255,4.07448295 C25.3018859,3.43564574 25.1621521,2.82433566 25.0034144,2.23899457 C24.8431863,1.65625039 24.6501673,1.16491705 24.4273384,0.763436434 C24.2026464,0.362475194 23.9593232,0.163552713 23.6966236,0.164591473 L17.086654,0.209777519 C16.9029506,0.210816279 16.6734144,0.349490698 16.4002814,0.623723256 C16.1249125,0.900552713 15.8506616,1.21477752 15.576038,1.56224264 C15.3025323,1.91334341 15.0476578,2.27223488 14.8129049,2.63839767 C14.57927,3.0061186 14.4216502,3.29852946 14.3433992,3.51874651 L0.26791635,28.8400721 L0.268288973,29.0047155 C0.26791635,28.9693977 0.241460076,29.0966457 0.19078327,29.3906147 L15.3073764,29.2882969 C19.4729354,29.2602504 20.4976502,23.2743977 20.5501901,23.0552194 L21.3975361,29.2477853 L28.4013688,29.2000023 L25.7218327,5.68975426 C25.641346,5.25191705 25.5422281,4.71332016 25.4211255,4.07448295 L25.4211255,4.07448295 Z" id="Fill-10" fill="#4CBCCE" mask="url(#mask-4)"></path>
                                </g>
                                <path d="M69.17153,56.8900636 L67.0725414,35.9060791 C64.7082449,36.0224202 62.2362601,36.1683659 59.6934768,36.3511876 L62.3607163,61.2175364 C62.4475376,61.6912109 62.5496365,62.2765519 62.6658951,62.9683659 C62.7806631,63.6612186 62.9259863,64.3244667 63.0988837,64.9575907 C63.2721536,65.5917535 63.4722525,66.1261953 63.7025338,66.5572806 C63.9305795,66.9945984 64.2014768,67.2096217 64.5155985,67.2075442 L71.5537125,67.1597612 C71.7519483,67.1587225 72.0075681,67.0075829 72.3198266,66.7094589 C72.6309673,66.4102961 72.936146,66.0503659 73.2338722,65.6333039 C73.530108,65.2141643 73.8065947,64.8074899 74.0614692,64.4080868 C74.3155985,64.0112806 74.5134616,63.691862 74.6550586,63.4524279 L89.703089,35.5222574 L80.914762,35.5809473 L69.17153,56.8900636 Z" id="Fill-13" fill="#4CBCCE"></path>
                                <path d="M86.0458259,32.9711674 L90.4625331,33.0028496 L86.0491795,32.7815938 L86.0458259,32.9711674 Z M81.1588677,32.5764388 L72.4379856,32.322462 L72.4364951,33.0984155 L81.1562593,32.9768806 L81.1588677,32.5764388 Z M67.5886624,32.2471519 C64.680708,32.2191054 61.7712631,32.2180667 58.8621909,32.2507876 L58.883803,33.6110434 C61.7865407,33.4541907 64.6903962,33.3285008 67.5942517,33.2318961 L67.5886624,32.2471519 Z M54.0124951,32.3349271 C51.1015597,32.4066016 48.1902517,32.5104775 45.2822973,32.6600589 L45.3534684,34.6035783 C48.2498715,34.3314233 51.1481376,34.0997798 54.0475217,33.9034543 L54.0124951,32.3349271 Z M40.431111,32.9493535 C37.5224114,33.1503535 34.611476,33.3965395 31.7072479,33.7029736 L31.8697118,36.2245628 C34.7538183,35.795555 37.6394152,35.4257566 40.5309741,35.1011442 L40.431111,32.9493535 Z M18.4847004,38.7321287 C21.3404875,38.0688806 24.200746,37.5006791 27.0755369,36.9989581 L27.065476,34.1397721 C24.0133163,34.5241132 21.8446471,34.957276 18.9512251,35.5021054 L18.4847004,38.7321287 Z M9.53390951,41.1939891 C8.25022129,41.6136481 6.42660152,42.3153302 5.0668981,42.8497721 L5.91349886,38.7061597 C6.93933156,38.3706403 7.96889049,38.0501829 8.99807681,37.7614078 C10.4397574,37.3562915 12.997073,36.6790202 14.4435977,36.342462 L13.755362,39.9292992 C12.3420008,40.3193535 10.933111,40.7390124 9.53390951,41.1939891 L9.53390951,41.1939891 Z" id="Fill-15" fill="#4CBCCE"></path>
                                <mask id="mask-6" fill="white">
                                    <use xlink:href="#path-5"></use>
                                </mask>
                                <g id="Clip-26"></g>
                            </g>
                        </g>
                        <g id="API" transform="translate(109.355992, 0.000000)">
                            <g id="Oval-5">
                                <use fill="black" fill-opacity="1" filter="url(#filter-8)" xlink:href="#path-7"></use>
                                <use fill="#4CBCCE" fill-rule="evenodd" xlink:href="#path-7"></use>
                            </g>
                            <path d="M18.6371343,48.0405405 L13.8783784,48.0405405 L20.3454056,30.9594595 L25.2261809,30.9594595 L31.6932081,48.0405405 L26.9344522,48.0405405 L25.8362778,44.9903475 L19.7353087,44.9903475 L18.6371343,48.0405405 Z M20.8334831,41.8181467 L24.7381034,41.8181467 L22.7857932,36.0837838 L20.8334831,41.8181467 Z M35.2599285,30.9594595 L45.5095566,30.9594595 C47.2178365,30.9594595 48.4583544,31.3458134 49.2311477,32.1185328 C50.003941,32.8912523 50.3903318,34.1316517 50.3903318,35.8397683 L50.3903318,38.2799228 C50.3903318,39.9880394 50.003941,41.2284389 49.2311477,42.0011583 C48.4583544,42.7738777 47.2178365,43.1602317 45.5095566,43.1602317 L39.6526263,43.1602317 L39.6526263,48.0405405 L35.2599285,48.0405405 L35.2599285,30.9594595 Z M45.9976341,35.8397683 C45.9976341,34.8637017 45.5095615,34.3756757 44.5334015,34.3756757 L39.6526263,34.3756757 L39.6526263,39.7440154 L44.5334015,39.7440154 C45.5095615,39.7440154 45.9976341,39.2559894 45.9976341,38.2799228 L45.9976341,35.8397683 Z M62.9864865,48.0405405 L54.201091,48.0405405 L54.201091,44.6243243 L56.3974399,44.6243243 L56.3974399,34.3756757 L54.201091,34.3756757 L54.201091,30.9594595 L62.9864865,30.9594595 L62.9864865,34.3756757 L60.7901376,34.3756757 L60.7901376,44.6243243 L62.9864865,44.6243243 L62.9864865,48.0405405 Z" fill="#FFFFFF" fill-rule="evenodd"></path>
                        </g>
                    </g>
                </g>
            </g>
        </g>
    </g>
</svg>