<?xml version="1.0" encoding="UTF-8"?>
<svg width="34px" height="33px" viewBox="0 0 34 33" version="1.1" xmlns="http://www.w3.org/2000/svg" xmlns:xlink="http://www.w3.org/1999/xlink">
    <!-- Generator: Sketch 47.1 (45422) - http://www.bohemiancoding.com/sketch -->
    <title>logo-facebook</title>
    <desc>Created with Sketch.</desc>
    <defs></defs>
    <g id="Page-1" stroke="none" stroke-width="1" fill="none" fill-rule="evenodd">
        <g id="JAMNAV-Homepage" transform="translate(-1054.000000, -5149.000000)" fill-rule="nonzero" fill="#07819C">
            <g id="Footer" transform="translate(0.000000, 4877.000000)">
                <g id="Group-31" transform="translate(219.000000, 271.000000)">
                    <g id="Group-30" transform="translate(835.000000, 0.000000)">
                        <g id="logo-facebook" transform="translate(0.000000, 1.000000)">
                            <path d="M32.0646154,0 L1.41230769,0 C0.627692308,0 0,0.61875 0,1.3921875 L0,31.659375 C0,32.38125 0.627692308,33 1.41230769,33 L17.7846154,33 L17.7846154,20.625 L13.6,20.625 L13.6,15.46875 L17.7846154,15.46875 L17.7846154,11.34375 C17.7846154,7.0640625 20.5046154,5.0015625 24.3753846,5.0015625 C26.2061538,5.0015625 27.8276923,5.15625 28.2984615,5.2078125 L28.2984615,9.6421875 L25.6307692,9.6421875 C23.5384615,9.6421875 23.0676923,10.621875 23.0676923,12.065625 L23.0676923,15.46875 L28.2984615,15.46875 L27.2523077,20.625 L23.0676923,20.625 L23.1723077,33 L32.1692308,33 C32.9538462,33 33.5815385,32.38125 33.5815385,31.6078125 L33.5815385,1.3921875 C33.4769231,0.61875 32.8492308,0 32.0646154,0 Z" id="Shape"></path>
                        </g>
                    </g>
                </g>
            </g>
        </g>
    </g>
</svg>