<?xml version="1.0" encoding="UTF-8"?>
<svg width="35px" height="28px" viewBox="0 0 35 28" version="1.1" xmlns="http://www.w3.org/2000/svg" xmlns:xlink="http://www.w3.org/1999/xlink">
    <!-- Generator: Sketch 47.1 (45422) - http://www.bohemiancoding.com/sketch -->
    <title>logo-twitter</title>
    <desc>Created with Sketch.</desc>
    <defs></defs>
    <g id="Page-1" stroke="none" stroke-width="1" fill="none" fill-rule="evenodd">
        <g id="JAMNAV-Homepage" transform="translate(-1187.000000, -5152.000000)" fill-rule="nonzero" fill="#07819C">
            <g id="Footer" transform="translate(0.000000, 4877.000000)">
                <g id="Group-31" transform="translate(219.000000, 271.000000)">
                    <g id="Group-30" transform="translate(835.000000, 0.000000)">
                        <g id="logo-twitter" transform="translate(133.000000, 4.000000)">
                            <path d="M35,3.33846154 C33.6875,3.87692308 32.3203125,4.30769231 30.8984375,4.46923077 C32.375,3.60769231 33.5234375,2.20769231 34.0703125,0.538461538 C32.703125,1.34615385 31.171875,1.93846154 29.53125,2.26153846 C28.1640625,0.861538462 26.3046875,0 24.2265625,0 C20.234375,0 17.0625,3.17692308 17.0625,7.05384615 C17.0625,7.59230769 17.1171875,8.13076923 17.2265625,8.66923077 C11.265625,8.4 5.9609375,5.54615385 2.4609375,1.29230769 C1.859375,2.31538462 1.4765625,3.55384615 1.4765625,4.84615385 C1.4765625,7.32307692 2.734375,9.47692308 4.6484375,10.7153846 C3.4453125,10.6615385 2.3515625,10.3384615 1.421875,9.85384615 C1.421875,9.90769231 1.421875,9.90769231 1.421875,9.96153846 C1.421875,13.4076923 3.8828125,16.2615385 7.1640625,16.9076923 C6.5625,17.0692308 5.90625,17.1769231 5.25,17.1769231 C4.8125,17.1769231 4.3203125,17.1230769 3.8828125,17.0692308 C4.8125,19.8692308 7.4375,21.9153846 10.609375,21.9692308 C8.1484375,23.8538462 5.03125,24.9846154 1.6953125,24.9846154 C1.09375,24.9846154 0.546875,24.9307692 -3.55271368e-15,24.8769231 C3.171875,26.8153846 6.9453125,28 10.9921875,28 C24.2265625,28 31.4453125,17.2307692 31.4453125,7.86153846 C31.4453125,7.53846154 31.4453125,7.26923077 31.4453125,6.94615385 C32.8125,5.97692308 34.015625,4.73846154 35,3.33846154 Z" id="Shape"></path>
                        </g>
                    </g>
                </g>
            </g>
        </g>
    </g>
</svg>