<?xml version="1.0" encoding="UTF-8"?>
<svg width="35px" height="35px" viewBox="0 0 35 35" version="1.1" xmlns="http://www.w3.org/2000/svg" xmlns:xlink="http://www.w3.org/1999/xlink">
    <!-- Generator: Sketch 47.1 (45422) - http://www.bohemiancoding.com/sketch -->
    <title>logo-instagram</title>
    <desc>Created with Sketch.</desc>
    <defs></defs>
    <g id="Page-1" stroke="none" stroke-width="1" fill="none" fill-rule="evenodd">
        <g id="JAMNAV-Homepage" transform="translate(-1120.000000, -5148.000000)" fill-rule="nonzero" fill="#07819C">
            <g id="Footer" transform="translate(0.000000, 4877.000000)">
                <g id="Group-31" transform="translate(219.000000, 271.000000)">
                    <g id="Group-30" transform="translate(835.000000, 0.000000)">
                        <g id="logo-instagram" transform="translate(66.000000, 0.000000)">
                            <path d="M17.5,3.15328125 C22.1725,3.15328125 22.7259375,3.17132813 24.5716406,3.25554688 C26.5633594,3.34632813 28.41125,3.745 29.833125,5.16742188 C31.255,6.58929688 31.6536719,8.4371875 31.745,10.4289063 C31.8292188,12.2740625 31.8472656,12.8275 31.8472656,17.5005469 C31.8472656,22.1735937 31.8292188,22.7264844 31.745,24.5721875 C31.6542188,26.5639063 31.2555469,28.4117969 29.833125,29.8336719 C28.41125,31.2555469 26.5628125,31.6542187 24.5716406,31.7455469 C22.7264844,31.8297656 22.1730469,31.8478125 17.5,31.8478125 C12.8269531,31.8478125 12.2735156,31.8297656 10.4283594,31.7455469 C8.43664063,31.6547656 6.58875,31.2560938 5.166875,29.8336719 C3.745,28.4117969 3.34632813,26.5639063 3.255,24.5721875 C3.17078125,22.7259375 3.15328125,22.1725 3.15328125,17.5 C3.15328125,12.8275 3.17132813,12.2740625 3.25554688,10.4283594 C3.34632813,8.43664063 3.745,6.58875 5.16742188,5.166875 C6.58929688,3.745 8.4371875,3.34632813 10.4289063,3.255 C12.2740625,3.17078125 12.8275,3.15328125 17.5,3.15328125 L17.5,3.15328125 Z M17.5,0 C12.7471094,0 12.1515625,0.020234375 10.2845312,0.105546875 C7.44078125,0.23515625 4.94265625,0.931875 2.93671875,2.93726562 C0.932421875,4.94210938 0.23515625,7.4396875 0.105546875,10.2845313 C0.020234375,12.1515625 0,12.7471094 0,17.5 C0,22.2528906 0.020234375,22.8484375 0.105546875,24.7154688 C0.23515625,27.5592188 0.931875,30.0573438 2.93726562,32.0632813 C4.94210937,34.068125 7.44023438,34.7653906 10.2850781,34.895 C12.1515625,34.9797656 12.7471094,35 17.5,35 C22.2528906,35 22.8484375,34.9797656 24.7154688,34.8944531 C27.5586719,34.7648437 30.0573438,34.068125 32.0632813,32.0627344 C34.068125,30.0578906 34.7653906,27.5597656 34.895,24.7149219 C34.9797656,22.8484375 35,22.2528906 35,17.5 C35,12.7471094 34.9797656,12.1515625 34.8944531,10.2845312 C34.7648437,7.44078125 34.068125,4.94265625 32.0627344,2.93671875 C30.0578906,0.931875 27.5597656,0.234609375 24.7149219,0.105 C22.8484375,0.020234375 22.2528906,0 17.5,0 L17.5,0 Z" id="Shape"></path>
                            <path d="M17.5,8.51375 C12.5371094,8.51375 8.51375,12.5371094 8.51375,17.5 C8.51375,22.4628906 12.5371094,26.48625 17.5,26.48625 C22.4628906,26.48625 26.48625,22.4628906 26.48625,17.5 C26.48625,12.5371094 22.4628906,8.51375 17.5,8.51375 Z M17.5,23.3335156 C14.2783594,23.3335156 11.6664844,20.7216406 11.6664844,17.5 C11.6664844,14.2783594 14.2783594,11.6664844 17.5,11.6664844 C20.7216406,11.6664844 23.3335156,14.2783594 23.3335156,17.5 C23.3335156,20.7216406 20.7216406,23.3335156 17.5,23.3335156 Z" id="Shape"></path>
                            <circle id="Oval" cx="26.8417188" cy="8.15828125" r="2.1"></circle>
                        </g>
                    </g>
                </g>
            </g>
        </g>
    </g>
</svg>