<?xml version="1.0" encoding="UTF-8"?>
<svg width="209px" height="58px" viewBox="0 0 209 58" version="1.1" xmlns="http://www.w3.org/2000/svg" xmlns:xlink="http://www.w3.org/1999/xlink">
    <!-- Generator: Sketch 47.1 (45422) - http://www.bohemiancoding.com/sketch -->
    <title>monagis_teal</title>
    <desc>Created with Sketch.</desc>
    <defs></defs>
    <g id="Page-1" stroke="none" stroke-width="1" fill="none" fill-rule="evenodd">
        <g id="JAMNAV-Homepage" transform="translate(-616.000000, -5263.000000)" fill="#259BB1">
            <g id="Footer" transform="translate(0.000000, 4877.000000)">
                <g id="monagis_teal" transform="translate(616.000000, 386.000000)">
                    <g id="monagis_spotwhite">
                        <path d="M25.7660526,51.1444 C25.4528421,51.55968 24.9312105,51.78762 24.4182632,51.7795 C23.5133684,51.77196 22.7341053,51.01854 22.7537895,50.02152 C22.7537895,49.22054 23.353,48.48336 24.1594737,48.33372 C24.2422632,48.32618 24.3401053,48.31864 24.4338947,48.31864 C24.8964737,48.31864 25.3822105,48.47524 25.6757368,48.8128 C25.8326316,49.00072 25.5622632,49.25244 25.3978421,49.0564 C25.1077895,48.71884 24.6145263,48.6011 24.2185263,48.69506 C23.6424737,48.83658 23.1335789,49.3464 23.1335789,50.03718 C23.1457368,50.78306 23.7449474,51.40308 24.4263684,51.41816 C24.8142632,51.42628 25.2212632,51.25402 25.4528421,50.94778 L25.4528421,50.24134 L24.5045263,50.24134 C24.2538421,50.24134 24.2851053,49.89566 24.5045263,49.89566 L25.6207368,49.89566 C25.7741579,49.89566 25.8210526,49.97454 25.8210526,50.0917 L25.8210526,50.97098 C25.8210526,51.0342 25.8129474,51.09684 25.7660526,51.1444" id="Fill-3" fill-rule="nonzero"></path>
                        <path d="M31.1757368,51.3793 L33.2558947,51.3793 C33.4793684,51.3793 33.5106316,51.73252 33.2558947,51.73252 L31.0385263,51.73252 C30.8897368,51.73252 30.7959474,51.63044 30.7959474,51.49704 L30.7959474,48.6011 C30.7959474,48.48336 30.8897368,48.37316 31.0385263,48.37316 L33.264,48.37316 C33.4909474,48.37316 33.4793684,48.71072 33.2558947,48.71072 L31.1757368,48.71072 L31.1757368,49.90378 L33.1580526,49.90378 C33.3653158,49.90378 33.3815263,50.24134 33.1580526,50.24134 L31.1757368,50.24134 L31.1757368,51.3793" id="Fill-4" fill-rule="nonzero"></path>
                        <path d="M38.5758421,50.0134 C38.5758421,50.87702 39.1472632,51.42628 39.8877368,51.42628 C40.601,51.42628 41.1845789,50.9008 41.1845789,50.0134 C41.1845789,49.33074 40.7376316,48.7809 40.0874737,48.6794 C39.9311579,48.66316 39.7783158,48.66316 39.6335789,48.6794 C38.9909474,48.7809 38.5758421,49.2913 38.5758421,50.0134 Z M38.1798421,49.98962 C38.1798421,49.1666 38.7402632,48.45958 39.5785789,48.32618 C39.7742632,48.3024 39.9548947,48.3024 40.1343684,48.32618 C40.9495263,48.45146 41.5759474,49.12658 41.5759474,49.98962 C41.5759474,51.09684 40.7851053,51.78762 39.8877368,51.78762 C38.94,51.78762 38.1798421,51.1125 38.1798421,49.98962 L38.1798421,49.98962 Z" id="Fill-5" fill-rule="nonzero"></path>
                        <path d="M46.4964211,48.44334 C46.4964211,48.17654 46.8958947,48.18466 46.8958947,48.44334 L46.8958947,51.59912 C46.8958947,51.84272 46.4964211,51.84968 46.4964211,51.59912 L46.4964211,48.44334" id="Fill-6" fill-rule="nonzero"></path>
                        <path d="M54.2919474,48.49902 C54.2919474,48.2792 54.6914211,48.26354 54.6914211,48.49902 L54.6914211,51.5359 C54.6914211,51.79574 54.3313158,51.81894 54.2213158,51.63798 L52.2471053,48.99318 L52.2864737,49.72282 L52.2864737,51.58404 C52.2864737,51.84272 51.8904737,51.84968 51.8904737,51.58404 L51.8904737,48.56166 C51.8904737,48.29486 52.1845789,48.24788 52.3177368,48.44334 L54.3469474,51.1676 L54.2919474,50.3672 L54.2919474,48.49902" id="Fill-7" fill-rule="nonzero"></path>
                        <path d="M59.7838421,48.6011 C59.7838421,48.48336 59.8897895,48.37316 60.0148421,48.37316 L62.1893684,48.37316 C62.4087895,48.37316 62.4087895,48.70318 62.1893684,48.70318 L60.1642105,48.70318 L60.1642105,50.02964 L62.0874737,50.02964 C62.2912632,50.02964 62.3068947,50.35908 62.0874737,50.35908 L60.1642105,50.35908 L60.1642105,51.591 C60.1642105,51.8578 59.7838421,51.8578 59.7838421,51.59912 L59.7838421,48.6011" id="Fill-8" fill-rule="nonzero"></path>
                        <path d="M67.4381053,50.0134 C67.4381053,50.87702 68.0106842,51.42628 68.7546316,51.42628 C69.4673158,51.42628 70.0474211,50.9008 70.0474211,50.0134 C70.0474211,49.33074 69.6010526,48.7809 68.9508947,48.6794 C68.794,48.66316 68.6411579,48.66316 68.4964211,48.6794 C67.8572632,48.7809 67.4381053,49.2913 67.4381053,50.0134 Z M67.0467368,49.98962 C67.0467368,49.1666 67.6031053,48.45958 68.4414211,48.32618 C68.6371053,48.3024 68.8171579,48.3024 69.0018421,48.32618 C69.8123684,48.45146 70.4387895,49.12658 70.4387895,49.98962 C70.4387895,51.09684 69.6479474,51.78762 68.7546316,51.78762 C67.8068947,51.78762 67.0467368,51.1125 67.0467368,49.98962 L67.0467368,49.98962 Z" id="Fill-9" fill-rule="nonzero"></path>
                        <path d="M75.7818947,50.22568 L76.8477368,50.22568 C77.5413158,50.22568 77.8429474,49.90378 77.8273158,49.50358 C77.8273158,49.07148 77.4591053,48.71884 76.8477368,48.71884 L75.7818947,48.71884 L75.7818947,50.22568 Z M75.7818947,50.55512 L75.7818947,51.57592 C75.7818947,51.81894 75.3980526,51.81894 75.3980526,51.58404 L75.3980526,48.55354 C75.3980526,48.44334 75.4767895,48.36562 75.5943158,48.36562 L76.8436842,48.36562 C77.7566842,48.36562 78.2186842,48.88298 78.2186842,49.50358 C78.2186842,50.03718 77.9286316,50.42172 77.2784737,50.53134 L78.133,51.45818 C78.3367895,51.65422 78.0467368,51.8897 77.8742105,51.70874 L76.8083684,50.55512 L75.7818947,50.55512 L75.7818947,50.55512 Z" id="Fill-10" fill-rule="nonzero"></path>
                        <path d="M86.0142105,48.45146 C86.1357895,48.26354 86.3824211,48.32618 86.3824211,48.546 L86.3824211,51.591 C86.3824211,51.84272 85.9945263,51.84272 85.9945263,51.591 L85.9945263,49.1898 L84.9176842,50.8689 C84.8314211,51.02666 84.6351579,51.02666 84.557,50.8689 L83.4836316,49.19734 L83.4836316,51.591 C83.4836316,51.84272 83.0957368,51.84272 83.0957368,51.591 L83.0957368,48.546 C83.0957368,48.32618 83.3504737,48.26354 83.4523684,48.45146 L84.7411053,50.46116 L86.0142105,48.45146" id="Fill-11" fill-rule="nonzero"></path>
                        <path d="M92.9088947,48.85224 L92.0781053,50.50814 L93.7350526,50.50814 L92.9088947,48.85224 Z M91.9177368,50.8457 L91.4904737,51.678 C91.3966842,51.87404 91.0481579,51.73252 91.146,51.52836 L92.7363684,48.38128 C92.7676316,48.31864 92.8382632,48.28674 92.9088947,48.28674 C92.9795263,48.28674 93.0420526,48.31864 93.0773684,48.38128 L94.6636842,51.5127 C94.8008947,51.73252 94.413,51.87404 94.3111053,51.66176 L93.9000526,50.8457 L91.9177368,50.8457 L91.9177368,50.8457 Z" id="Fill-12" fill-rule="nonzero"></path>
                        <path d="M101.440842,48.36562 C101.699053,48.36562 101.699053,48.73392 101.440842,48.73392 L100.265579,48.73392 C100.265579,49.68396 100.273105,50.64908 100.273105,51.59912 C100.273105,51.73252 100.163684,51.79574 100.069895,51.79574 C99.9836316,51.79574 99.8817368,51.73252 99.8817368,51.59912 L99.8817368,48.73392 L98.7145789,48.73392 C98.4633158,48.73392 98.4633158,48.36562 98.7145789,48.36562 L101.440842,48.36562" id="Fill-13" fill-rule="nonzero"></path>
                        <path d="M106.274474,48.44334 C106.274474,48.17654 106.666421,48.18466 106.666421,48.44334 L106.666421,51.59912 C106.666421,51.84272 106.274474,51.84968 106.274474,51.59912 L106.274474,48.44334" id="Fill-14" fill-rule="nonzero"></path>
                        <path d="M113.999368,51.59912 C113.749263,51.71686 113.462684,51.78762 113.208526,51.78762 C112.307105,51.78762 111.496579,51.04986 111.496579,50.00586 C111.496579,49.14282 112.111421,48.45146 112.926579,48.32618 C113.541421,48.23976 114.078105,48.39636 114.493789,48.83658 C114.649526,49.01696 114.368158,49.22866 114.218789,49.07148 C113.862737,48.68694 113.443,48.63242 112.981,48.68694 C112.334895,48.7809 111.876368,49.24432 111.876368,50.0134 C111.876368,50.81438 112.491789,51.42628 113.216632,51.42628 C113.412316,51.42628 113.631158,51.37118 113.830895,51.27722 C113.991842,51.1908 114.152211,51.0574 114.261632,50.91646 C114.383789,50.74362 114.705105,50.93966 114.567895,51.12816 C114.426632,51.33232 114.226895,51.48892 113.999368,51.59912" id="Fill-15" fill-rule="nonzero"></path>
                        <path d="M119.695632,50.9008 C119.836316,51.34044 120.416421,51.4344 120.839632,51.4344 C121.286,51.4344 121.983053,51.29346 121.983053,50.75928 C121.983053,50.30398 121.430737,50.26512 120.851211,50.21756 C120.126368,50.16246 119.343053,50.0917 119.343053,49.29942 C119.343053,48.6011 120.146053,48.29486 120.788684,48.29486 C121.341,48.29486 122.029947,48.42826 122.253421,49.03262 C122.332158,49.23678 121.975526,49.33828 121.896789,49.15848 C121.735842,48.7577 121.172526,48.68694 120.792737,48.68694 C120.439579,48.68694 119.758158,48.82904 119.758158,49.30754 C119.758158,49.77038 120.283263,49.81794 120.894053,49.86492 C121.615421,49.92756 122.390632,49.96642 122.390632,50.75928 C122.390632,51.55968 121.489789,51.81082 120.839632,51.81082 C120.302947,51.81082 119.483737,51.63044 119.307737,50.99476 C119.245211,50.75928 119.656842,50.68098 119.695632,50.9008" id="Fill-16" fill-rule="nonzero"></path>
                        <path d="M6.14031579,12.87252 L16.4895789,36.82768 L26.8787895,12.87252 L32.6566842,43.036 C32.6566842,43.036 29.4950526,42.76166 28.6961053,38.90756 C28.4529474,37.69072 25.7423158,23.73592 25.7423158,23.73592 L25.6722632,23.73592 L16.4895789,44.2134 L7.35436842,23.73592 L7.27621053,23.73592 C7.27621053,23.73592 4.92568421,36.26218 4.45963158,38.90756 C3.86852632,42.29824 0.365894737,43.036 0.365894737,43.036 L6.14031579,12.87252" id="Fill-17" fill-rule="nonzero"></path>
                        <path d="M43.6092105,28.76684 C43.6092105,35.20252 48.8232105,40.5797 55.2715263,40.5797 C61.7348947,40.5797 66.9448421,35.20252 66.9448421,28.76684 C66.9448421,22.30738 61.8130526,16.96964 55.2715263,16.96964 C48.741,16.96964 43.6092105,22.30738 43.6092105,28.76684 Z M70.1215263,28.80628 C70.1215263,37.02372 63.3958947,43.53074 55.2715263,43.53074 C47.1622105,43.53074 40.4325263,37.02372 40.4325263,28.80628 C40.4325263,20.63524 47.1622105,14.0186 55.2715263,14.0186 C63.3958947,14.0186 70.1215263,20.63524 70.1215263,28.80628 L70.1215263,28.80628 Z" id="Fill-18" fill-rule="nonzero"></path>
                        <path d="M80.9530526,13.2965 L103.164368,36.60786 L103.164368,18.995 C103.164368,14.7407 106.333526,14.50522 106.333526,14.50522 L106.333526,44.3236 L84.1262632,21.0511 L84.1262632,38.90756 C84.1262632,42.76166 80.9530526,43.036 80.9530526,43.036 L80.9530526,13.2965" id="Fill-19" fill-rule="nonzero"></path>
                        <path d="M131.306421,20.55636 L126.433421,31.9928 L136.054368,31.9928 L131.306421,20.55636 Z M125.148737,34.94384 C125.148737,34.94384 124.889947,35.74424 123.209263,39.51192 C121.536684,43.28714 118.237842,43.036 118.237842,43.036 L131.368947,13.13932 L144.178737,43.036 C144.178737,43.036 140.731684,43.10676 139.105421,39.237 C137.484368,35.38348 137.303737,34.94384 137.303737,34.94384 L125.148737,34.94384 L125.148737,34.94384 Z" id="Fill-20" fill-rule="nonzero"></path>
                        <path d="M196.310632,41.49784 C192.373211,41.49784 189.443737,38.94642 188.667947,35.13176 C188.667947,35.13176 190.348053,34.32382 191.989368,37.05562 C192.651684,38.13036 194.097316,38.88378 196.244053,38.94642 C198.876526,39.04154 201.293053,36.92976 201.293053,34.1591 C201.293053,31.27824 199.049053,30.305 196.760474,29.261 L195.272579,28.61778 C192.405053,27.30698 189.932947,25.839 189.932947,22.3155 C189.932947,18.5078 193.149,16.05904 196.792316,16.05904 C199.526684,16.05904 201.845947,17.45684 203.146263,19.88182 C203.146263,19.88182 201.814105,21.2628 199.502947,19.50482 C199.229105,19.30878 198.817474,18.60234 196.725737,18.60234 C194.563368,18.60234 192.667316,20.16428 192.667316,22.417 C192.667316,24.53632 194.849368,25.52522 196.506316,26.2711 L198.127947,26.9845 C201.324316,28.3823 204.027421,29.9831 204.027421,33.90796 C204.027421,38.19358 200.572263,41.49784 196.310632,41.49784 Z M185.154316,41.07328 C185.154316,41.07328 182.419368,41.07328 182.419368,37.29864 L182.419368,16.4836 C182.419368,16.4836 185.154316,16.74982 185.154316,20.29768 L185.154316,41.07328 Z M176.351421,37.38506 C174.106842,39.99854 170.679474,41.49784 167.263684,41.49784 C160.360895,41.49784 154.638,35.7599 154.638,28.85268 C154.638,21.79698 160.360895,16.05904 167.432158,16.05904 C171.725053,16.05904 175.199895,17.98232 177.812684,21.373 C177.812684,21.373 175.784053,22.51154 173.100053,20.56448 C171.932895,19.70898 171.000789,18.60234 167.392789,18.60234 C161.799,18.60234 157.364842,23.33514 157.364842,28.86834 C157.364842,31.4824 158.406368,33.96306 160.235842,35.815 C162.03,37.60488 164.626579,38.94642 167.197105,38.94642 C171.466842,38.94642 175.956,35.815 175.956,31.24692 L168.657789,31.24692 C168.657789,31.24692 168.858105,28.71174 172.458,28.71174 L178.890105,28.71174 C178.949158,32.03978 178.592526,34.77912 176.351421,37.38506 Z M180.092579,0.47096 C164.243316,0.47096 151.390105,13.34348 151.390105,29.21402 C151.390105,45.10022 164.243316,57.97216 180.092579,57.97216 C195.934316,57.97216 208.787526,45.10022 208.787526,29.21402 C208.787526,13.34348 195.934316,0.47096 180.092579,0.47096 L180.092579,0.47096 Z" id="Fill-21" fill-rule="nonzero"></path>
                    </g>
                </g>
            </g>
        </g>
    </g>
</svg>